<svg width="20" height="20" viewBox="0 0 20 20" fill="none" xmlns="http://www.w3.org/2000/svg">
<path opacity="0.8" d="M19.3333 18.3333H18V6.66667C18.1768 6.66667 18.3464 6.57887 18.4714 6.42259C18.5964 6.26631 18.6667 6.05435 18.6667 5.83333C18.6667 5.61232 18.5964 5.40036 18.4714 5.24408C18.3464 5.0878 18.1768 5 18 5H14V1.66667C14.1768 1.66667 14.3464 1.57887 14.4714 1.42259C14.5964 1.26631 14.6667 1.05435 14.6667 0.833333C14.6667 0.61232 14.5964 0.400358 14.4714 0.244078C14.3464 0.0877975 14.1768 0 14 0H2C1.82319 0 1.65362 0.0877975 1.5286 0.244078C1.40357 0.400358 1.33333 0.61232 1.33333 0.833333C1.33333 1.05435 1.40357 1.26631 1.5286 1.42259C1.65362 1.57887 1.82319 1.66667 2 1.66667V18.3333H0.666667C0.489856 18.3333 0.320286 18.4211 0.195262 18.5774C0.0702379 18.7337 0 18.9457 0 19.1667C0 19.3877 0.0702379 19.5996 0.195262 19.7559C0.320286 19.9122 0.489856 20 0.666667 20H19.3333C19.5101 20 19.6797 19.9122 19.8047 19.7559C19.9298 19.5996 20 19.3877 20 19.1667C20 18.9457 19.9298 18.7337 19.8047 18.5774C19.6797 18.4211 19.5101 18.3333 19.3333 18.3333ZM16.6667 6.66667V18.3333H14V6.66667H16.6667ZM3.33333 1.66667H12.6667V18.3333H10.6667V13.3333C10.6667 13.1123 10.5964 12.9004 10.4714 12.7441C10.3464 12.5878 10.1768 12.5 10 12.5H6C5.82319 12.5 5.65362 12.5878 5.5286 12.7441C5.40357 12.9004 5.33333 13.1123 5.33333 13.3333V18.3333H3.33333V1.66667ZM9.33333 18.3333H6.66667V14.1667H9.33333V18.3333ZM4.66667 5C4.66667 4.77899 4.7369 4.56702 4.86193 4.41074C4.98695 4.25446 5.15652 4.16667 5.33333 4.16667H6.66667C6.84348 4.16667 7.01305 4.25446 7.13807 4.41074C7.2631 4.56702 7.33333 4.77899 7.33333 5C7.33333 5.22101 7.2631 5.43298 7.13807 5.58926C7.01305 5.74554 6.84348 5.83333 6.66667 5.83333H5.33333C5.15652 5.83333 4.98695 5.74554 4.86193 5.58926C4.7369 5.43298 4.66667 5.22101 4.66667 5ZM8.66667 5C8.66667 4.77899 8.7369 4.56702 8.86193 4.41074C8.98695 4.25446 9.15652 4.16667 9.33333 4.16667H10.6667C10.8435 4.16667 11.013 4.25446 11.1381 4.41074C11.2631 4.56702 11.3333 4.77899 11.3333 5C11.3333 5.22101 11.2631 5.43298 11.1381 5.58926C11.013 5.74554 10.8435 5.83333 10.6667 5.83333H9.33333C9.15652 5.83333 8.98695 5.74554 8.86193 5.58926C8.7369 5.43298 8.66667 5.22101 8.66667 5ZM4.66667 9.16667C4.66667 8.94565 4.7369 8.73369 4.86193 8.57741C4.98695 8.42113 5.15652 8.33333 5.33333 8.33333H6.66667C6.84348 8.33333 7.01305 8.42113 7.13807 8.57741C7.2631 8.73369 7.33333 8.94565 7.33333 9.16667C7.33333 9.38768 7.2631 9.59964 7.13807 9.75592C7.01305 9.9122 6.84348 10 6.66667 10H5.33333C5.15652 10 4.98695 9.9122 4.86193 9.75592C4.7369 9.59964 4.66667 9.38768 4.66667 9.16667ZM8.66667 9.16667C8.66667 8.94565 8.7369 8.73369 8.86193 8.57741C8.98695 8.42113 9.15652 8.33333 9.33333 8.33333H10.6667C10.8435 8.33333 11.013 8.42113 11.1381 8.57741C11.2631 8.73369 11.3333 8.94565 11.3333 9.16667C11.3333 9.38768 11.2631 9.59964 11.1381 9.75592C11.013 9.9122 10.8435 10 10.6667 10H9.33333C9.15652 10 8.98695 9.9122 8.86193 9.75592C8.7369 9.59964 8.66667 9.38768 8.66667 9.16667Z" fill="black"/>
</svg>
